<svg width="80" height="49" viewBox="0 0 80 49" fill="none" xmlns="http://www.w3.org/2000/svg">
<path d="M22.7869 17.9495C22.7869 18.9253 22.8924 19.7166 23.077 20.2968C23.288 20.877 23.5517 21.51 23.921 22.1957C24.0528 22.4067 24.1056 22.6177 24.1056 22.8023C24.1056 23.066 23.9473 23.3297 23.6045 23.5935L21.9429 24.7012C21.7056 24.8594 21.4682 24.9385 21.2572 24.9385C20.9935 24.9385 20.7297 24.8067 20.466 24.5693C20.0968 24.1737 19.7803 23.7517 19.5166 23.3297C19.2528 22.8814 18.9891 22.3803 18.699 21.7737C16.6418 24.2001 14.0572 25.4133 10.9451 25.4133C8.72974 25.4133 6.96271 24.7803 5.6704 23.5144C4.37809 22.2484 3.71875 20.5605 3.71875 18.4506C3.71875 16.2089 4.50996 14.3891 6.11875 13.0177C7.72754 11.6462 9.86381 10.9605 12.5803 10.9605C13.477 10.9605 14.4001 11.0396 15.3759 11.1715C16.3517 11.3034 17.3539 11.5144 18.4089 11.7517V9.82644C18.4089 7.82205 17.9869 6.42424 17.1693 5.60666C16.3253 4.78908 14.9012 4.39347 12.8704 4.39347C11.9473 4.39347 10.9979 4.49897 10.022 4.73633C9.04622 4.97369 8.09677 5.2638 7.1737 5.63303C6.75172 5.81765 6.43523 5.92314 6.25062 5.97589C6.066 6.02864 5.93414 6.05501 5.82864 6.05501C5.45941 6.05501 5.27479 5.79128 5.27479 5.23743V3.94512C5.27479 3.52314 5.32754 3.20666 5.45941 3.02204C5.59128 2.83743 5.82864 2.65281 6.19787 2.4682C7.12095 1.99347 8.22864 1.59787 9.52095 1.28139C10.8133 0.938528 12.1847 0.780286 13.6352 0.780286C16.7737 0.780286 19.0682 1.49237 20.5451 2.91655C21.9957 4.34073 22.7341 6.50336 22.7341 9.40446V17.9495H22.7869ZM12.0792 21.9583C12.9495 21.9583 13.8462 21.8001 14.7957 21.4836C15.7451 21.1671 16.5891 20.5869 17.3012 19.7957C17.7232 19.2946 18.0396 18.7407 18.1979 18.1078C18.3561 17.4748 18.4616 16.71 18.4616 15.8133V14.7056C17.6968 14.5209 16.8792 14.3627 16.0352 14.2572C15.1913 14.1517 14.3737 14.099 13.5561 14.099C11.7891 14.099 10.4968 14.4418 9.62644 15.1539C8.75611 15.866 8.33414 16.8682 8.33414 18.1869C8.33414 19.4264 8.65062 20.3495 9.30996 20.9825C9.94293 21.6418 10.866 21.9583 12.0792 21.9583ZM33.2572 24.8067C32.7825 24.8067 32.466 24.7275 32.255 24.5429C32.044 24.3847 31.8594 24.0155 31.7012 23.5144L25.5034 3.12754C25.3451 2.60007 25.266 2.25721 25.266 2.07259C25.266 1.65062 25.477 1.41325 25.899 1.41325H28.4836C28.9847 1.41325 29.3276 1.49237 29.5122 1.67699C29.7232 1.83523 29.8814 2.20446 30.0396 2.70556L34.4704 20.1649L38.5847 2.70556C38.7166 2.17809 38.8748 1.83523 39.0858 1.67699C39.2968 1.51875 39.666 1.41325 40.1407 1.41325H42.2506C42.7517 1.41325 43.0946 1.49237 43.3056 1.67699C43.5166 1.83523 43.7012 2.20446 43.8067 2.70556L47.9737 20.3759L52.5364 2.70556C52.6946 2.17809 52.8792 1.83523 53.0638 1.67699C53.2748 1.51875 53.6177 1.41325 54.0924 1.41325H56.5451C56.9671 1.41325 57.2045 1.62424 57.2045 2.07259C57.2045 2.20446 57.1781 2.33633 57.1517 2.49457C57.1254 2.65281 57.0726 2.8638 56.9671 3.15391L50.6111 23.5407C50.4528 24.0682 50.2682 24.4111 50.0572 24.5693C49.8462 24.7275 49.5034 24.833 49.055 24.833H46.7869C46.2858 24.833 45.9429 24.7539 45.7319 24.5693C45.521 24.3847 45.3363 24.0418 45.2309 23.5144L41.1429 6.50336L37.0814 23.488C36.9495 24.0155 36.7913 24.3583 36.5803 24.5429C36.3693 24.7275 36.0001 24.8067 35.5254 24.8067H33.2572ZM67.1473 25.5188C65.7759 25.5188 64.4045 25.3605 63.0858 25.044C61.7671 24.7275 60.7385 24.3847 60.0528 23.9891C59.6309 23.7517 59.3408 23.488 59.2353 23.2506C59.1298 23.0133 59.077 22.7495 59.077 22.5122V21.1671C59.077 20.6133 59.288 20.3495 59.6836 20.3495C59.8418 20.3495 60.0001 20.3759 60.1583 20.4286C60.3166 20.4814 60.5539 20.5869 60.8177 20.6924C61.7144 21.088 62.6902 21.4045 63.7188 21.6155C64.7737 21.8264 65.8023 21.9319 66.8572 21.9319C68.5188 21.9319 69.8111 21.6418 70.7078 21.0616C71.6045 20.4814 72.0792 19.6374 72.0792 18.5561C72.0792 17.8177 71.8419 17.2111 71.3671 16.71C70.8924 16.2089 69.9957 15.7605 68.7034 15.3385L64.8792 14.1517C62.9539 13.5451 61.5298 12.6484 60.6594 11.4616C59.7891 10.3012 59.3407 9.00886 59.3407 7.63743C59.3407 6.52974 59.5781 5.55391 60.0528 4.70996C60.5276 3.866 61.1605 3.12754 61.9517 2.54732C62.7429 1.94073 63.6397 1.49237 64.6946 1.17589C65.7495 0.859407 66.8572 0.727539 68.0177 0.727539C68.5979 0.727539 69.2045 0.753913 69.7847 0.833034C70.3913 0.912154 70.9452 1.01765 71.499 1.12314C72.0265 1.25501 72.5276 1.38688 73.0023 1.54512C73.477 1.70336 73.8462 1.86161 74.11 2.01985C74.4792 2.23084 74.743 2.44183 74.9012 2.67919C75.0594 2.89018 75.1386 3.18029 75.1386 3.54952V4.78908C75.1386 5.34292 74.9276 5.63303 74.532 5.63303C74.321 5.63303 73.9781 5.52754 73.5298 5.31655C72.0265 4.63084 70.3386 4.28798 68.466 4.28798C66.9627 4.28798 65.7759 4.52534 64.9583 5.02644C64.1408 5.52754 63.7188 6.29238 63.7188 7.37369C63.7188 8.11216 63.9825 8.74512 64.51 9.24622C65.0375 9.74732 66.0133 10.2484 67.4111 10.6968L71.1561 11.8836C73.055 12.4902 74.4265 13.3341 75.244 14.4155C76.0616 15.4968 76.4572 16.7363 76.4572 18.1078C76.4572 19.2418 76.2199 20.2704 75.7715 21.1671C75.2968 22.0638 74.6638 22.855 73.8462 23.488C73.0287 24.1473 72.0528 24.622 70.9188 24.9649C69.732 25.3341 68.4924 25.5188 67.1473 25.5188Z" fill="#252F3E"/>
<path fill-rule="evenodd" clip-rule="evenodd" d="M72.1319 38.3362C63.455 44.745 50.8484 48.1472 40.0088 48.1472C24.8176 48.1472 11.1297 42.5296 0.791243 33.1933C-0.0263398 32.4549 0.712122 31.4527 1.68795 32.0329C12.8704 38.5208 26.6638 42.4505 40.9319 42.4505C50.5583 42.4505 61.1341 40.4461 70.866 36.3318C72.3165 35.6725 73.5561 37.2813 72.1319 38.3362Z" fill="#FF9900"/>
<path fill-rule="evenodd" clip-rule="evenodd" d="M75.745 34.222C74.6373 32.7978 68.4131 33.5363 65.5911 33.8791C64.7471 33.9846 64.6153 33.2462 65.3801 32.6923C70.3384 29.211 78.4878 30.2132 79.4373 31.3736C80.3867 32.5605 79.1735 40.7099 74.5318 44.6132C73.8197 45.2198 73.134 44.9033 73.4504 44.1121C74.5054 41.5011 76.8526 35.6198 75.745 34.222Z" fill="#FF9900"/>
</svg>
