<svg width="77" height="88" viewBox="0 0 77 88" fill="none" xmlns="http://www.w3.org/2000/svg">
<g clip-path="url(#clip0_357_756)">
<path fill-rule="evenodd" clip-rule="evenodd" d="M73.5192 13.4466L76.666 17.8807C76.7665 18.0193 76.8385 18.1765 76.8778 18.3432C76.9172 18.5099 76.923 18.6827 76.8951 18.8517C76.8672 19.0206 76.806 19.1824 76.7151 19.3275C76.6242 19.4726 76.5054 19.5983 76.3656 19.6972L73.9269 21.4351L69.264 14.9056L71.7099 13.1677C71.99 12.9688 72.3375 12.8888 72.6764 12.9451C73.0154 13.0013 73.3184 13.1894 73.5192 13.4681V13.4466ZM15.4188 65.1533C15.5761 65.0773 15.7469 65.0329 15.9213 65.0228C16.0958 65.0127 16.2705 65.0371 16.4355 65.0946C16.6006 65.152 16.7527 65.2414 16.8831 65.3576C17.0136 65.4739 17.1199 65.6146 17.196 65.7719C17.2721 65.9293 17.3164 66.1 17.3265 66.2745C17.3366 66.4489 17.3122 66.6236 17.2548 66.7887C17.1973 66.9537 17.1079 67.1058 16.9917 67.2363C16.8755 67.3668 16.7347 67.4731 16.5774 67.5491C15.3414 68.1157 13.9704 68.3214 12.6225 68.1427C11.7683 68.044 10.9254 67.8644 10.1051 67.6064C10.1051 67.9496 10.1766 68.3215 10.2195 68.6291C10.3483 69.5874 10.5271 70.5743 10.7488 71.5827C10.8208 71.9215 10.7593 72.275 10.5771 72.5696C9.93893 73.7491 9.53575 75.0412 9.38994 76.3743C9.33195 76.822 9.37299 77.2769 9.51016 77.707C9.64733 78.137 9.87729 78.5317 10.1838 78.8631C11.0003 79.5792 12.0107 80.0371 13.0874 80.179C15.5552 80.5287 18.0651 80.444 20.5037 79.9287C23.3959 79.421 26.2335 78.6403 28.9784 77.5973C31.1017 76.8208 33.0993 75.7364 34.9072 74.379C36.4663 73.1346 37.1814 71.0892 37.7679 69.3728C37.8966 69.0081 38.0182 68.6577 38.0754 68.5146L38.2542 68.0283C39.0194 65.9257 40.3425 62.307 42.0732 60.941C42.3577 60.7257 42.7161 60.6323 43.0695 60.6812C43.4229 60.7302 43.7424 60.9175 43.9577 61.202C44.173 61.4865 44.2664 61.8449 44.2175 62.1983C44.1685 62.5517 43.9812 62.8712 43.6966 63.0865C42.6024 63.8946 41.4796 67.0843 40.7645 68.9223C40.6286 69.3013 40.6572 69.2298 40.5928 69.4157C40.4426 69.8019 40.3711 70.0165 40.2924 70.231C39.5773 72.3122 38.7119 74.7437 36.5592 76.4673C34.5379 77.9798 32.3038 79.1849 29.9296 80.0431C29.3575 80.2648 28.7853 80.4722 28.2061 80.6653C28.2288 81.5365 28.1977 82.4083 28.1131 83.2757C27.9968 84.4838 27.7791 85.68 27.4623 86.8515C27.3674 87.193 27.1409 87.4827 26.8324 87.6571C26.5239 87.8314 26.1588 87.8761 25.8174 87.7813C25.476 87.6864 25.1862 87.4598 25.0119 87.1514C24.8375 86.8429 24.7928 86.4778 24.8877 86.1364C25.1697 85.1058 25.3635 84.0531 25.467 82.9896C25.517 82.4819 25.5456 81.9598 25.5528 81.4377C23.9794 81.8668 22.4275 82.2101 20.9614 82.4747C18.2062 83.0502 15.3707 83.1325 12.5867 82.7179C10.9803 82.4833 9.48355 81.7648 8.29572 80.6582C7.71958 80.0657 7.28117 79.3535 7.01169 78.5723C6.74221 77.791 6.6483 76.96 6.73665 76.1383C6.88941 74.5673 7.33578 73.039 8.05257 71.6328C7.87377 70.7531 7.71644 69.8448 7.59486 68.9008C7.45041 67.8715 7.35732 66.8356 7.31594 65.797C7.31249 65.7565 7.31249 65.7159 7.31594 65.6754C7.31195 65.6302 7.31195 65.5847 7.31594 65.5395C7.12285 63.5299 7.10139 61.5703 7.07278 59.5893V59.1245L3.99755 58.9457C3.23581 58.9258 2.49395 58.6983 1.85204 58.2877C1.26731 57.9087 0.797404 57.377 0.493219 56.7501C0.161604 56.1044 -0.00776517 55.3876 -0.000248583 54.6618C0.0591184 53.421 0.460051 52.2207 1.15833 51.1932L4.45526 44.4707C6.06439 41.1666 6.05009 40.7661 5.97857 39.0068C5.97857 38.2272 5.90706 37.226 5.97857 35.7313C6.01906 34.0212 6.23474 32.3197 6.62223 30.6536C6.88368 29.5466 7.25503 28.4685 7.73074 27.4353L1.72331 24.825C1.56062 24.7577 1.41289 24.6589 1.28869 24.5342C1.16448 24.4094 1.06627 24.2613 0.999748 24.0983C0.933225 23.9353 0.899713 23.7607 0.901154 23.5847C0.902594 23.4087 0.93896 23.2347 1.00814 23.0728C1.04803 22.9837 1.09845 22.8996 1.15833 22.8225C15.4617 3.33416 31.6174 -2.03676 45.2843 0.652279C53.2054 2.29608 60.3928 6.43108 65.7954 12.4526L66.1029 12.7887L65.9957 12.8602L63.9074 14.3048L63.8287 14.219C58.8119 8.63578 52.1454 4.79774 44.798 3.26264C32.3755 0.816767 17.6215 5.64416 4.32653 23.0585L10.0479 25.5401C10.1268 25.57 10.2033 25.6058 10.2767 25.6474C10.5784 25.8312 10.7951 26.1269 10.8795 26.4699C10.964 26.813 10.9092 27.1754 10.7273 27.4782C10.0325 28.66 9.52124 29.9405 9.21114 31.2758C8.86848 32.7665 8.6768 34.288 8.63901 35.8171C8.5961 37.2475 8.63901 38.1557 8.63901 38.8995C8.72483 41.1594 8.74628 41.7602 6.83678 45.6364L3.53269 52.3876C3.50256 52.4572 3.46667 52.5242 3.42542 52.5878C2.97165 53.2157 2.7062 53.96 2.66018 54.7333C2.66011 55.0218 2.72875 55.3062 2.86043 55.5629C2.95296 55.7612 3.09912 55.9297 3.28238 56.0492C3.51227 56.1929 3.77661 56.2719 4.04761 56.2781H4.15489L7.96675 56.4998C8.09086 56.4564 8.22148 56.4347 8.35294 56.4354H8.48882L12.0003 56.7358C12.3522 56.7643 12.6783 56.9313 12.907 57.2002C13.1356 57.4691 13.2481 57.8179 13.2197 58.1697C13.1912 58.5216 13.0242 58.8477 12.7553 59.0764C12.4863 59.305 12.1376 59.4175 11.7858 59.3891H11.7142L9.73322 59.2675V59.5464C9.73322 61.27 9.78328 62.9864 9.91916 64.7171C10.8683 65.0963 11.8602 65.3581 12.8728 65.4966C13.7299 65.6218 14.6049 65.5029 15.3974 65.1533H15.4188ZM73.934 25.7475C74.8709 28.2673 75.5327 30.8809 75.9079 33.5429C77.6887 46.3659 72.5466 60.0756 56.7127 69.3728C56.5811 69.4522 56.4354 69.5057 56.2836 69.5302C56.2956 71.4211 56.415 73.3098 56.6412 75.1871C57.0597 78.6762 57.8953 82.1025 59.13 85.3926C59.1976 85.5573 59.2314 85.7338 59.2295 85.9117C59.2276 86.0897 59.19 86.2655 59.119 86.4286C59.0479 86.5918 58.9448 86.7391 58.8158 86.8617C58.6868 86.9843 58.5346 87.0798 58.368 87.1425C58.2014 87.2052 58.024 87.2338 57.8462 87.2267C57.6683 87.2196 57.4938 87.1768 57.3327 87.101C57.1717 87.0252 57.0275 86.9179 56.9088 86.7853C56.79 86.6528 56.699 86.4978 56.6412 86.3295C55.3292 82.844 54.4408 79.2136 53.9951 75.5161C53.522 71.4784 53.5028 67.4003 53.9379 63.3583C53.9794 63.0119 54.1554 62.6957 54.4279 62.4778C54.7003 62.2599 55.0475 62.1577 55.3945 62.1934C55.7416 62.229 56.0607 62.3996 56.2832 62.6683C56.5057 62.937 56.6138 63.2824 56.584 63.63C56.4839 64.6027 56.4052 65.561 56.3623 66.4907C70.3296 57.8658 74.8781 45.4862 73.2689 33.9362C72.9577 31.7008 72.4259 29.5016 71.6813 27.371L73.934 25.7475ZM39.9277 18.1668C40.3362 17.484 40.88 16.892 41.5257 16.4271C42.1714 15.9622 42.9053 15.6343 43.6823 15.4634C44.998 15.2055 46.3622 15.4022 47.5514 16.0212C48.7221 16.604 49.6875 17.5295 50.3191 18.6745C50.5488 19.1016 50.7241 19.5557 50.8412 20.0262C51.542 20.019 52.2388 20.1327 52.9009 20.3623C53.4252 20.542 53.9268 20.782 54.3956 21.0775L51.8496 22.8869C51.5036 22.7736 51.1408 22.7204 50.7768 22.7295C50.5186 23.5367 50.1002 24.2834 49.5467 24.9251C49.4407 25.0673 49.3067 25.1862 49.153 25.2747C48.9993 25.3632 48.8291 25.4194 48.6529 25.4398C48.4767 25.4601 48.2983 25.4443 48.1284 25.3932C47.9586 25.3421 47.801 25.2568 47.6653 25.1426C47.5296 25.0284 47.4187 24.8876 47.3393 24.729C47.26 24.5704 47.2139 24.3972 47.2039 24.2201C47.1939 24.043 47.2202 23.8658 47.2812 23.6992C47.3422 23.5327 47.4366 23.3804 47.5586 23.2516C47.981 22.8167 48.2543 22.2589 48.3392 21.6587C48.424 21.0584 48.316 20.4467 48.0306 19.9118C47.6535 19.2352 47.0799 18.6891 46.3857 18.3455C45.7285 17.9958 44.972 17.8798 44.2402 18.0166C43.2675 18.2168 42.3235 18.9677 41.6727 20.4982C41.6801 20.5671 41.6801 20.6367 41.6727 20.7056V47.5745C41.6961 47.6418 41.7129 47.7113 41.7228 47.7819C42.1018 50.0561 43.0816 51.1503 44.1901 51.4579C44.734 51.5735 45.2965 51.5694 45.8386 51.4459C46.3808 51.3224 46.8896 51.0825 47.3297 50.7427C47.7791 50.4548 48.1557 50.0667 48.4299 49.6088C48.7042 49.151 48.8686 48.6358 48.9102 48.1037C48.9102 46.9451 48.0735 45.6364 45.7992 44.4778C45.6462 44.3994 45.51 44.2916 45.3986 44.1605C45.2872 44.0295 45.2027 43.8778 45.1499 43.7141C45.0971 43.5504 45.077 43.3779 45.0909 43.2065C45.1048 43.035 45.1523 42.868 45.2307 42.7149C45.3091 42.5618 45.4169 42.4257 45.548 42.3143C45.679 42.2028 45.8307 42.1183 45.9944 42.0655C46.1581 42.0127 46.3306 41.9927 46.502 42.0066C46.6735 42.0204 46.8405 42.0679 46.9936 42.1464C49.5038 43.4265 50.8197 45.007 51.2846 46.5876C52.166 46.2541 52.9177 45.6477 53.4301 44.8568C54.2502 43.6396 54.5938 42.1632 54.3956 40.7089C54.3397 40.4331 54.3718 40.1467 54.4872 39.8901C54.6027 39.6335 54.7958 39.4196 55.0392 39.2785C55.8948 38.8063 56.6444 38.1637 57.242 37.3905C57.5591 36.9836 57.8012 36.5234 57.9571 36.0317L58.6723 35.9458C59.3303 35.9042 59.9639 35.6814 60.5031 35.3022L60.8464 35.059V35.1234C60.8009 36.5276 60.3184 37.8826 59.4662 38.9996C58.8329 39.8365 58.0642 40.5616 57.1919 41.1451C57.2877 43.0122 56.7675 44.859 55.7115 46.4016C54.7026 47.9205 53.1347 48.9795 51.349 49.3481C50.8619 50.969 49.7813 52.3466 48.323 53.2056C46.8647 54.0647 45.136 54.3421 43.4821 53.9824C42.7453 53.7701 42.0611 53.4059 41.4736 52.9132C40.886 52.4205 40.4082 51.8103 40.0707 51.1217C39.6684 51.8614 39.1124 52.5064 38.4402 53.0134C37.7679 53.5204 36.9949 53.8776 36.1731 54.0611C35.3044 54.2211 34.4115 54.1921 33.555 53.9761C32.6986 53.7602 31.8987 53.3623 31.2098 52.8095C30.0919 51.9616 29.3053 50.75 28.9856 49.3839C28.3959 49.3576 27.8131 49.2468 27.2549 49.0549C25.9306 48.5914 24.7533 47.7843 23.8435 46.7163C22.8529 45.5842 22.2075 44.1918 21.9841 42.7042C21.8645 41.874 21.8911 41.0293 22.0628 40.2083C21.4564 39.6592 20.9293 39.0286 20.4965 38.3345C19.7705 37.18 19.3862 35.8436 19.388 34.4797C19.4115 33.0167 19.8999 31.599 20.7826 30.4319C21.3943 29.6033 22.1357 28.8788 22.9782 28.2864C22.9652 28.0482 22.9652 27.8094 22.9782 27.5712C23.0356 25.7233 23.6962 23.945 24.8591 22.5078C25.8851 21.1997 27.3611 20.3202 28.9999 20.0405C29.051 19.8152 29.1155 19.5931 29.193 19.3754C29.7156 18.0247 30.6881 16.8956 31.9464 16.1786C33.2165 15.4277 34.7193 15.173 36.1659 15.4634C36.942 15.6344 37.6749 15.9624 38.3194 16.4273C38.9639 16.8923 39.5063 17.4842 39.9134 18.1668H39.9277ZM29.1215 46.7234C29.6436 45.0857 31.0095 43.4623 33.5984 42.1392C33.7521 42.055 33.9211 42.0025 34.0954 41.9848C34.2697 41.9671 34.4459 41.9846 34.6133 42.0362C34.7807 42.0879 34.9361 42.1726 35.0702 42.2854C35.2042 42.3983 35.3143 42.5369 35.3938 42.693C35.4733 42.8491 35.5206 43.0197 35.533 43.1944C35.5454 43.3692 35.5225 43.5447 35.4658 43.7105C35.4091 43.8763 35.3197 44.029 35.2028 44.1596C35.086 44.2901 34.9441 44.3959 34.7856 44.4707C32.3898 45.6936 31.4672 47.0953 31.4672 48.3183C31.4929 48.8044 31.6285 49.2784 31.8639 49.7045C32.0993 50.1307 32.4282 50.4978 32.8261 50.7784C33.2246 51.0942 33.686 51.3213 34.1793 51.4446C34.6726 51.568 35.1865 51.5847 35.6867 51.4936C36.9025 51.2362 38.0826 50.1133 38.6905 47.6532V21.8284C38.0826 19.3897 36.9025 18.2526 35.6867 18.0166C34.8654 17.8653 34.0171 18.0233 33.3052 18.46C32.573 18.8722 32.0049 19.5237 31.6961 20.3051C31.3242 21.3135 31.5459 22.5579 32.8046 23.7308C33.0298 23.9705 33.1558 24.2867 33.1574 24.6156C33.159 24.9445 33.036 25.2619 32.8131 25.5038C32.5902 25.7457 32.284 25.8942 31.956 25.9196C31.628 25.9449 31.3027 25.8451 31.0453 25.6403C30.1727 24.8702 29.5189 23.8834 29.1501 22.7796C28.2986 23.0107 27.5454 23.5128 27.0046 24.2099C26.2159 25.1923 25.769 26.405 25.7316 27.6642C25.7183 28.0468 25.7398 28.4298 25.7959 28.8085C25.8317 29.0674 25.7912 29.3311 25.6794 29.5673C25.5676 29.8036 25.3894 30.0021 25.1666 30.1387C24.3387 30.627 23.6107 31.2676 23.0211 32.0267C22.475 32.7413 22.1673 33.6094 22.1414 34.5084C22.1484 35.3608 22.3964 36.1938 22.8566 36.9113C23.2483 37.5704 23.7601 38.1502 24.3656 38.6206C24.6082 38.7883 24.7897 39.0304 24.8826 39.3104C24.9755 39.5904 24.9748 39.893 24.8805 40.1725C24.6396 40.8728 24.5662 41.6199 24.666 42.3538C24.8148 43.3232 25.2394 44.2293 25.8889 44.9641C26.4891 45.6686 27.2633 46.2037 28.1345 46.516C28.4528 46.6266 28.785 46.6916 29.1215 46.7091V46.7234ZM29.4219 28.3436C29.6684 28.1018 30.001 27.9678 30.3463 27.9711C30.6917 27.9745 31.0216 28.1149 31.2634 28.3615C31.5053 28.6081 31.6392 28.9406 31.6359 29.286C31.6325 29.6313 31.4921 29.9612 31.2455 30.203C30.1764 31.2518 29.5472 32.6687 29.4862 34.1651C29.4333 35.7206 29.9409 37.2434 30.9166 38.4561C31.1328 38.7254 31.2332 39.0696 31.1956 39.413C31.1581 39.7563 30.9856 40.0707 30.7163 40.2869C30.5829 40.394 30.4298 40.4737 30.2656 40.5216C30.1014 40.5695 29.9294 40.5846 29.7594 40.566C29.4161 40.5284 29.1017 40.356 28.8855 40.0867C27.5039 38.3887 26.7894 36.2451 26.8758 34.0578C26.9562 31.8969 27.8624 29.8492 29.4075 28.3365L29.4219 28.3436ZM58.4435 32.3629L53.6661 33.0065C49.9186 33.5071 49.8185 34.2437 51.3633 30.9826L53.7948 25.8405L68.0267 15.7352L72.6896 22.2718L58.4435 32.37V32.3629ZM54.5887 26.9562L57.6496 31.2472L54.51 31.6691C52.0498 31.9981 51.9783 32.4773 52.9939 30.3318L54.5887 26.9562Z" fill="#1A1A1A"/>
</g>
<defs>
<clipPath id="clip0_357_756">
<rect width="76.9094" height="87.88" fill="white"/>
</clipPath>
</defs>
</svg>
