<svg width="105" height="87" viewBox="0 0 105 87" fill="none" xmlns="http://www.w3.org/2000/svg">
<g clip-path="url(#clip0_357_774)">
<path fill-rule="evenodd" clip-rule="evenodd" d="M2.85163 1.07407H102.061C102.816 1.07633 103.54 1.37749 104.075 1.91178C104.609 2.44608 104.91 3.17009 104.912 3.92569V69.6666C104.91 70.4222 104.609 71.1462 104.075 71.6805C103.54 72.2148 102.816 72.516 102.061 72.5182H2.85163C2.47603 72.5171 2.10433 72.442 1.75775 72.2972C1.41116 72.1525 1.09649 71.9409 0.831692 71.6745C0.566895 71.4081 0.357158 71.0922 0.214459 70.7447C0.0717587 70.3973 -0.00111009 70.0251 1.27821e-05 69.6495V3.90862C0.00674982 3.15598 0.309889 2.43633 0.843701 1.90572C1.37751 1.3751 2.09897 1.07629 2.85163 1.07407V1.07407ZM11.5175 55.639C11.2161 55.6578 10.9141 55.6146 10.63 55.5122C10.346 55.4098 10.0859 55.2502 9.86586 55.0435C9.64582 54.8367 9.47045 54.587 9.35058 54.3099C9.2307 54.0327 9.16886 53.734 9.16886 53.432C9.16886 53.1301 9.2307 52.8313 9.35058 52.5542C9.47045 52.277 9.64582 52.0274 9.86586 51.8206C10.0859 51.6138 10.346 51.4543 10.63 51.3518C10.9141 51.2494 11.2161 51.2063 11.5175 51.225H45.199C45.5004 51.2063 45.8024 51.2494 46.0865 51.3518C46.3705 51.4543 46.6306 51.6138 46.8506 51.8206C47.0707 52.0274 47.2461 52.277 47.3659 52.5542C47.4858 52.8313 47.5477 53.1301 47.5477 53.432C47.5477 53.734 47.4858 54.0327 47.3659 54.3099C47.2461 54.587 47.0707 54.8367 46.8506 55.0435C46.6306 55.2502 46.3705 55.4098 46.0865 55.5122C45.8024 55.6146 45.5004 55.6578 45.199 55.639H11.5175ZM11.6455 44.3009C11.0839 44.2659 10.5568 44.0182 10.1714 43.6081C9.78611 43.1981 9.5716 42.6565 9.5716 42.0938C9.5716 41.5312 9.78611 40.9896 10.1714 40.5796C10.5568 40.1695 11.0839 39.9218 11.6455 39.8868H36.2002C36.7618 39.9218 37.289 40.1695 37.6743 40.5796C38.0596 40.9896 38.2742 41.5312 38.2742 42.0938C38.2742 42.6565 38.0596 43.1981 37.6743 43.6081C37.289 44.0182 36.7618 44.2659 36.2002 44.3009H11.6455ZM11.5175 33.0054C11.2161 33.0241 10.9141 32.981 10.63 32.8785C10.346 32.7761 10.0859 32.6166 9.86586 32.4098C9.64582 32.203 9.47045 31.9534 9.35058 31.6762C9.2307 31.3991 9.16886 31.1003 9.16886 30.7984C9.16886 30.4964 9.2307 30.1976 9.35058 29.9205C9.47045 29.6434 9.64582 29.3937 9.86586 29.1869C10.0859 28.9801 10.346 28.8206 10.63 28.7182C10.9141 28.6158 11.2161 28.5726 11.5175 28.5913H28.9004C29.462 28.6263 29.9892 28.874 30.3745 29.2841C30.7598 29.6941 30.9744 30.2357 30.9744 30.7984C30.9744 31.3611 30.7598 31.9026 30.3745 32.3126C29.9892 32.7227 29.462 32.9704 28.9004 33.0054H11.5175ZM11.5175 21.6843C11.2161 21.703 10.9141 21.6599 10.63 21.5574C10.346 21.455 10.0859 21.2955 9.86586 21.0887C9.64582 20.8819 9.47045 20.6323 9.35058 20.3551C9.2307 20.078 9.16886 19.7792 9.16886 19.4773C9.16886 19.1753 9.2307 18.8765 9.35058 18.5994C9.47045 18.3223 9.64582 18.0726 9.86586 17.8658C10.0859 17.659 10.346 17.4995 10.63 17.3971C10.9141 17.2947 11.2161 17.2515 11.5175 17.2702H21.6006C22.1622 17.3052 22.6894 17.5529 23.0747 17.963C23.46 18.373 23.6746 18.9146 23.6746 19.4773C23.6746 20.04 23.46 20.5815 23.0747 20.9915C22.6894 21.4016 22.1622 21.6493 21.6006 21.6843H11.5175ZM94.334 44.0447V49.5431L83.0385 55.9464V49.5431L90.3127 46.7768L83.0385 44.0447V37.6414L94.334 44.0447ZM74.7654 57.7052H70.0098L75.9863 34.5593H80.793L74.8166 57.7052H74.7654ZM66.7313 44.0447L59.4486 46.7768L66.7313 49.5431V55.9464L55.4956 49.5431V44.0447L66.7996 37.6414V44.0447H66.7313ZM71.5722 11.0206V14.154C71.5722 14.5683 71.4076 14.9657 71.1146 15.2587C70.8216 15.5518 70.4242 15.7164 70.0098 15.7164H67.4485C67.1286 16.769 66.6692 17.774 66.0824 18.7046L67.79 20.4121C68.0809 20.7049 68.2442 21.1008 68.2442 21.5135C68.2442 21.9262 68.0809 22.3222 67.79 22.6149L65.4763 24.9286C65.1835 25.2196 64.7876 25.3828 64.3749 25.3828C63.9622 25.3828 63.5662 25.2196 63.2735 24.9286L61.4123 23.0674C60.4437 23.587 59.41 23.9746 58.3387 24.22V26.6277C58.3364 27.0413 58.1711 27.4374 57.8786 27.73C57.5861 28.0225 57.1899 28.1878 56.7763 28.1901H53.4721C53.0585 28.1878 52.6623 28.0225 52.3698 27.73C52.0773 27.4374 51.912 27.0413 51.9097 26.6277V23.998C50.8567 23.6831 49.8514 23.2264 48.9215 22.6405L47.2139 24.3481C47.0694 24.4944 46.8973 24.6106 46.7075 24.69C46.5177 24.7693 46.314 24.8101 46.1083 24.8101C45.9026 24.8101 45.6989 24.7693 45.5092 24.69C45.3194 24.6106 45.1472 24.4944 45.0027 24.3481L42.6889 22.0343C42.4077 21.7417 42.2506 21.3516 42.2506 20.9458C42.2506 20.5399 42.4077 20.1498 42.6889 19.8572L44.5502 18.0045C44.0305 17.033 43.6429 15.9964 43.3976 14.9224H40.9814C40.567 14.9224 40.1696 14.7577 39.8766 14.4647C39.5836 14.1717 39.4189 13.7743 39.4189 13.3599V11.0547H2.63819V61.5557C2.63819 62.235 2.90804 62.8865 3.38839 63.3669C3.86873 63.8472 4.52021 64.1171 5.19952 64.1171H99.764C100.443 64.1171 101.095 63.8472 101.575 63.3669C102.055 62.8865 102.325 62.235 102.325 61.5557V11.0206H71.5722ZM61.8221 11.0206H49.1947C49.1331 11.3816 49.1016 11.7472 49.1008 12.1134C49.219 13.7309 49.945 15.2437 51.1328 16.3479C52.3206 17.4521 53.8823 18.0659 55.5041 18.0659C57.1259 18.0659 58.6876 17.4521 59.8755 16.3479C61.0633 15.2437 61.7893 13.7309 61.9075 12.1134C61.9094 11.7474 61.8809 11.3819 61.8221 11.0206ZM97.5015 5.27466C97.8392 5.27466 98.1693 5.37481 98.4501 5.56244C98.731 5.75007 98.9498 6.01675 99.0791 6.32877C99.2083 6.64078 99.2421 6.98411 99.1762 7.31535C99.1103 7.64658 98.9477 7.95084 98.7089 8.18964C98.4701 8.42845 98.1658 8.59108 97.8346 8.65697C97.5034 8.72285 97.16 8.68904 96.848 8.5598C96.536 8.43055 96.2693 8.21169 96.0817 7.93089C95.8941 7.65008 95.7939 7.31994 95.7939 6.98222C95.7939 6.52935 95.9738 6.09502 96.2941 5.77479C96.6143 5.45457 97.0486 5.27466 97.5015 5.27466ZM86.0267 5.27466C86.3644 5.27466 86.6946 5.37481 86.9754 5.56244C87.2562 5.75007 87.475 6.01675 87.6043 6.32877C87.7335 6.64078 87.7673 6.98411 87.7015 7.31535C87.6356 7.64658 87.4729 7.95084 87.2341 8.18964C86.9953 8.42845 86.6911 8.59108 86.3598 8.65697C86.0286 8.72285 85.6853 8.68904 85.3733 8.5598C85.0612 8.43055 84.7945 8.21169 84.6069 7.93089C84.4193 7.65008 84.3191 7.31994 84.3191 6.98222C84.3191 6.52935 84.499 6.09502 84.8193 5.77479C85.1395 5.45457 85.5738 5.27466 86.0267 5.27466ZM91.7641 5.27466C92.1018 5.27466 92.432 5.37481 92.7128 5.56244C92.9936 5.75007 93.2124 6.01675 93.3417 6.32877C93.4709 6.64078 93.5047 6.98411 93.4388 7.31535C93.373 7.64658 93.2103 7.95084 92.9715 8.18964C92.7327 8.42845 92.4285 8.59108 92.0972 8.65697C91.766 8.72285 91.4227 8.68904 91.1106 8.5598C90.7986 8.43055 90.5319 8.21169 90.3443 7.93089C90.1567 7.65008 90.0565 7.31994 90.0565 6.98222C90.0565 6.52935 90.2364 6.09502 90.5567 5.77479C90.8769 5.45457 91.3112 5.27466 91.7641 5.27466ZM39.5214 76.4371H65.3909C65.4592 80.9109 67.3033 84.9236 72.298 88.0741H32.6143C36.6356 85.1627 39.5385 81.6366 39.5214 76.4371Z" fill="#333333"/>
</g>
<defs>
<clipPath id="clip0_357_774">
<rect width="104.912" height="87" fill="white"/>
</clipPath>
</defs>
</svg>
