<svg width="39" height="59" viewBox="0 0 39 59" fill="none" xmlns="http://www.w3.org/2000/svg">
<path d="M9.83317 58.4376C15.1668 58.4376 19.4998 54.1093 19.4998 48.7709V39.1042H9.83317C4.49951 39.1042 0.166504 43.4325 0.166504 48.7709C0.166504 54.1093 4.49951 58.4376 9.83317 58.4376Z" fill="#0ACF83"/>
<path d="M0.166504 29.4374C0.166504 24.1038 4.49951 19.7708 9.83317 19.7708H19.4998V39.1041H9.83317C4.49951 39.1041 0.166504 34.7758 0.166504 29.4374Z" fill="#A259FF"/>
<path d="M0.166504 10.1042C0.166504 4.77051 4.49951 0.4375 9.83317 0.4375H19.4998V19.7708H9.83317C4.49951 19.7708 0.166504 15.4425 0.166504 10.1042Z" fill="#F24E1E"/>
<path d="M19.5 0.4375H29.1667C34.5003 0.4375 38.8333 4.77051 38.8333 10.1042C38.8333 15.4425 34.505 19.7708 29.1667 19.7708H19.5V0.4375Z" fill="#FF7262"/>
<path d="M38.8333 29.4374C38.8333 34.7758 34.505 39.1041 29.1667 39.1041C23.8283 39.1041 19.5 34.7758 19.5 29.4374C19.5 24.1038 23.8283 19.7708 29.1667 19.7708C34.505 19.7708 38.8333 24.1038 38.8333 29.4374Z" fill="#1ABCFE"/>
</svg>
