<svg width="65" height="65" viewBox="0 0 65 65" fill="none" xmlns="http://www.w3.org/2000/svg">
<g clip-path="url(#clip0_357_965)">
<path fill-rule="evenodd" clip-rule="evenodd" d="M32.4988 1.23492C14.8293 1.23492 0.5 15.5618 0.5 33.2336C0.5 47.3728 9.6678 59.3634 22.3826 63.5966C23.983 63.893 24.5712 62.9009 24.5712 62.0552C24.5712 61.2922 24.5393 58.7717 24.5263 56.1C15.6231 58.0359 13.7463 52.3228 13.7463 52.3228C12.2911 48.6235 10.1934 47.6397 10.1934 47.6397C7.2902 45.6518 10.4143 45.6955 10.4143 45.6955C13.6269 45.92 15.3183 48.9909 15.3183 48.9909C18.1743 53.8831 22.8066 52.4669 24.6314 51.6507C24.9196 49.5826 25.7464 48.17 26.6629 47.3704C19.5549 46.5637 12.0832 43.8188 12.0832 31.5564C12.0832 28.0638 13.3352 25.2079 15.3797 22.9684C15.0467 22.1606 13.9506 18.9078 15.688 14.501C15.688 14.501 18.375 13.64 24.4909 17.781C27.0421 17.0735 29.7787 16.7168 32.4965 16.705C35.2165 16.7168 37.9579 17.0723 40.5127 17.781C46.6203 13.6424 49.3049 14.501 49.3049 14.501C51.0447 18.909 49.9534 22.1641 49.6203 22.9685C51.6719 25.2079 52.9133 28.0638 52.9133 31.5564C52.9133 43.8471 45.425 46.5494 38.3016 47.342C39.4497 48.3341 40.4749 50.2818 40.4749 53.2653C40.4749 57.5445 40.4383 60.9933 40.4383 62.0457C40.4383 62.8973 41.0147 63.893 42.6375 63.5811C55.3451 59.3457 64.5012 47.3537 64.5012 33.2229C64.5012 15.5534 50.1743 1.22412 32.5012 1.22412L32.4989 1.23482L32.4988 1.23492Z" fill="#1A1A1A"/>
</g>
<defs>
<clipPath id="clip0_357_965">
<rect width="64" height="64" fill="white" transform="translate(0.5 0.4375)"/>
</clipPath>
</defs>
</svg>
