<svg width="58" height="59" viewBox="0 0 58 59" fill="none" xmlns="http://www.w3.org/2000/svg">
<path fill-rule="evenodd" clip-rule="evenodd" d="M0 0.4375H58V58.4375H0V0.4375Z" fill="#F7DF1E"/>
<path fill-rule="evenodd" clip-rule="evenodd" d="M15.2505 48.9078L19.6873 46.2221C20.5417 47.7419 21.3205 49.0258 23.1896 49.0258C24.9785 49.0258 26.1113 48.3272 26.1113 45.599V27.0634H31.563V45.6746C31.563 51.3197 28.2542 53.8875 23.4256 53.8875C19.0643 53.8875 16.5343 51.6313 15.2505 48.9078ZM34.5225 48.3225L38.9593 45.7548C40.1299 47.6617 41.645 49.0636 44.3307 49.0636C46.5869 49.0636 48.0312 47.9355 48.0312 46.3778C48.0312 44.5087 46.5539 43.8479 44.0617 42.7576L42.6976 42.1723C38.7658 40.4967 36.1556 38.3962 36.1556 33.9594C36.1556 29.8718 39.2708 26.7566 44.1372 26.7566C47.6017 26.7566 50.0939 27.9649 51.8828 31.1179L47.6395 33.8414C46.7049 32.1658 45.6948 31.505 44.1372 31.505C42.5418 31.505 41.527 32.5151 41.527 33.8414C41.527 35.4745 42.5371 36.1401 44.8735 37.1501L46.2376 37.7354C50.8727 39.7226 53.4782 41.7475 53.4782 46.3023C53.4782 51.2065 49.6219 53.8922 44.444 53.8922C39.3888 53.8922 36.1178 51.4755 34.5225 48.3225Z" fill="#1A1A1A"/>
</svg>
