<svg width="114" height="87" viewBox="0 0 114 87" fill="none" xmlns="http://www.w3.org/2000/svg">
<path fill-rule="evenodd" clip-rule="evenodd" d="M91.089 0.982841C95.9939 0.982841 99.9716 4.96057 99.9716 9.8655C99.9716 14.7704 95.9939 18.7482 91.089 18.7482C89.3366 18.7482 87.6954 18.2382 86.3139 17.3573C86.2582 17.4315 86.1933 17.5057 86.1191 17.5706L79.5267 23.922C83.9217 28.8362 86.7126 35.2154 87.0649 42.2344H96.2813C96.9768 38.0248 100.639 34.8167 105.043 34.8167C109.948 34.8167 113.926 38.7944 113.926 43.6994C113.926 48.6043 109.948 52.582 105.043 52.582C100.88 52.582 97.3847 49.7169 96.4204 45.8412C96.3741 45.8412 96.3277 45.8505 96.2813 45.8505H87.0185C86.5271 52.7767 83.6713 59.0447 79.2485 63.8476L86.2304 70.3381C86.2953 70.403 86.3602 70.4679 86.4158 70.542C87.7696 69.7076 89.3644 69.2254 91.0797 69.2254C95.9846 69.2254 99.9624 73.2031 99.9624 78.1081C99.9624 83.013 95.9846 86.9907 91.0797 86.9907C86.1748 86.9907 82.1971 83.013 82.1971 78.1081C82.1971 76.2166 82.7905 74.4641 83.8011 73.0177L83.7733 72.9899L76.6431 66.3696C71.46 70.7831 64.7377 73.4442 57.4035 73.4442C49.8189 73.4442 42.9019 70.6069 37.6539 65.9338L30.4588 72.9435L30.4495 72.9528C31.4324 74.3807 31.998 76.1053 31.998 77.969C31.998 82.8739 28.0202 86.8516 23.1153 86.8516C18.2104 86.8516 14.2327 82.8739 14.2327 77.969C14.2327 73.064 18.2104 69.0863 23.1153 69.0863C24.8492 69.0863 26.4718 69.587 27.8441 70.4493C27.8719 70.4122 27.8997 70.3844 27.9368 70.3566L35.1041 63.3747C30.8853 58.5811 28.1871 52.4244 27.7606 45.6372L17.6541 45.7392H17.5984C16.7825 49.8097 13.1942 52.8787 8.88266 52.8787C3.97773 52.8787 0 48.901 0 43.9961C0 39.0911 3.97773 35.1134 8.88266 35.1134C13.1478 35.1134 16.7176 38.1175 17.5706 42.1324H17.617L27.7421 42.0304C28.1315 35.1783 30.8482 28.9567 35.1041 24.1167L27.5659 16.9123C27.5103 16.8567 27.4546 16.801 27.4083 16.7361C26.1751 17.3944 24.7565 17.756 23.2637 17.756C18.3587 17.756 14.381 13.7783 14.381 8.87339C14.381 3.97773 18.3587 0 23.2637 0C28.1686 0 32.1463 3.97773 32.1463 8.88266C32.1463 10.9782 31.4231 12.9067 30.1992 14.4274L37.6539 21.5483C42.9019 16.8752 49.8189 14.0379 57.3942 14.0379C64.8861 14.0379 71.7289 16.8103 76.9583 21.3907L83.6157 14.9744C83.6528 14.9373 83.6991 14.9002 83.7455 14.8632C82.7719 13.4353 82.2063 11.7199 82.2063 9.8655C82.2063 4.96057 86.1841 0.982841 91.089 0.982841ZM53.2311 46.8055L55.7067 54.0841L56.9492 49.7633L56.3372 49.0957C56.059 48.697 56.0034 48.3447 56.1518 48.0387C56.4856 47.3804 57.1624 47.5102 57.8022 47.5102C58.4698 47.5102 59.295 47.3804 59.5083 48.2241C59.5824 48.5023 59.4897 48.799 59.295 49.0957L58.683 49.7633L59.9255 54.0841L62.1693 46.8055C63.7827 48.2612 68.5764 48.5486 70.3566 49.55C70.9222 49.8653 71.4322 50.264 71.8401 50.8018C72.4614 51.6177 72.8415 52.6933 72.9435 54.047L73.3144 57.6538C73.2217 58.6181 72.6746 59.1745 71.6083 59.2486H57.83H43.8013C42.7258 59.1652 42.1787 58.6089 42.0953 57.6538L42.4662 54.047C42.5682 52.684 42.9483 51.6177 43.5695 50.8018C43.9775 50.264 44.4875 49.8653 45.0531 49.55C46.8333 48.5486 51.6177 48.2612 53.2311 46.8055ZM52.5635 35.7995C52.5913 35.8552 52.6006 35.9108 52.6006 35.9757C52.6006 36.0035 52.6006 36.0313 52.5913 36.0684L52.6376 36.4115C52.5171 36.4393 52.4058 36.4393 52.2946 36.4393C52.2482 36.4578 52.1926 36.4671 52.1462 36.4671C51.8402 36.4764 51.6177 36.532 51.4694 36.634C51.3952 36.6897 51.3303 36.7546 51.3025 36.8287C51.2561 36.9215 51.2376 37.0327 51.2468 37.1625C51.2561 37.5705 51.4786 38.099 51.8959 38.7202L51.9051 38.7295L53.2867 40.927C53.843 41.8078 54.4179 42.698 55.1318 43.3563C55.8087 43.9775 56.6432 44.404 57.728 44.404C58.9148 44.404 59.7771 43.9682 60.4818 43.3099C61.2236 42.6238 61.8077 41.6688 62.3826 40.7137L63.9403 38.1546C64.2556 37.4407 64.3483 37.0049 64.2463 36.8009C64.1814 36.6618 63.9032 36.634 63.4396 36.6711C63.3005 36.6804 63.1615 36.634 63.0687 36.5413C63.0316 36.5413 62.9946 36.5413 62.9575 36.532L62.976 36.4208C62.9482 36.3651 62.9297 36.3095 62.9204 36.2446C62.9018 36.087 62.976 35.9386 63.0873 35.8366L63.4118 34.1955C60.5653 34.1584 58.6181 33.667 56.3094 32.1927C55.5491 31.7105 55.3265 31.1542 54.5662 31.2098C53.9914 31.3211 53.5092 31.5807 53.1291 31.9887C52.7582 32.3874 52.4893 32.9252 52.3038 33.6113L52.5635 35.7995ZM64.3483 35.8088C64.6821 35.9108 64.9232 36.0962 65.0715 36.3929C65.3033 36.8658 65.2106 37.5705 64.7748 38.5719C64.7655 38.5904 64.7563 38.609 64.747 38.6275L63.1707 41.2237C62.5588 42.2251 61.9375 43.2357 61.1123 44.0146C60.25 44.8305 59.1745 45.3683 57.7187 45.3591C56.3557 45.3591 55.3265 44.8305 54.4828 44.061C53.6761 43.3192 53.0549 42.3734 52.4707 41.4462L51.0892 39.2487C50.57 38.4792 50.3103 37.7745 50.2918 37.1996C50.2825 36.9215 50.3289 36.6618 50.4309 36.4393C50.5421 36.2075 50.709 36.0035 50.9316 35.8552C51.0428 35.781 51.1634 35.7161 51.3025 35.6697C51.219 34.4922 51.1912 33.0272 51.2468 31.8033C51.2746 31.5066 51.3303 31.2098 51.4137 30.9039C51.7661 29.6429 52.6562 28.6229 53.7503 27.9275C54.1397 27.6772 54.557 27.4732 55.0113 27.3156C57.6724 26.3513 61.1865 26.8798 63.078 28.9196C63.8476 29.7541 64.3297 30.8482 64.4317 32.3132L64.3483 35.8088ZM75.8271 25.285C75.7715 25.2386 75.7251 25.1923 75.6788 25.1459C75.651 25.1181 75.6324 25.0903 75.6046 25.0625C70.9036 20.482 64.4874 17.6633 57.4128 17.6633C50.3196 17.6633 43.8941 20.4913 39.1931 25.081C39.1375 25.1644 39.0726 25.2386 39.0077 25.3128C38.915 25.4055 38.8222 25.489 38.711 25.5631C34.1491 30.2641 31.3304 36.6711 31.3304 43.7364C31.3304 50.9408 34.2511 57.4591 38.9706 62.1786C43.6901 66.8981 50.2084 69.8188 57.4128 69.8188C64.6172 69.8188 71.1355 66.8981 75.8549 62.1786C80.5744 57.4591 83.4951 50.9408 83.4951 43.7364C83.4951 36.532 80.5744 30.0137 75.8549 25.2943L75.8271 25.285Z" fill="#333333"/>
</svg>
