<svg width="27" height="59" viewBox="0 0 27 59" fill="none" xmlns="http://www.w3.org/2000/svg">
<path d="M13.4941 0.934937L15.0419 3.84205C15.3899 4.3784 15.767 4.85342 16.2107 5.29582C17.5066 6.59169 18.7372 7.94889 19.843 9.40266C22.4652 12.8461 24.2343 16.6702 25.4971 20.8058C26.2549 23.3323 26.666 25.924 26.6969 28.5444C26.8234 36.3792 24.1377 43.1065 18.7228 48.6972C17.8385 49.5815 16.8924 50.4006 15.8775 51.1293C15.3412 51.1293 15.0871 50.7177 14.8661 50.3393C14.4551 49.645 14.2028 48.8529 14.0762 48.0647C13.8856 47.1164 13.7608 46.1689 13.8226 45.1902V44.7482C13.7791 44.6538 13.3062 1.15809 13.4946 0.935372V0.935807L13.4941 0.934937Z" fill="#599636"/>
<path d="M13.4942 0.838365C13.4306 0.71178 13.3676 0.80748 13.3036 0.86925C13.3345 1.50348 13.1131 2.06898 12.7673 2.60925C12.3866 3.14561 11.8829 3.55756 11.377 3.99952C8.5682 6.43161 6.35708 9.36961 4.58619 12.6552C2.23022 17.0774 1.0157 21.8163 0.671612 26.8058C0.514141 28.6054 1.24103 34.9559 1.80827 36.7882C3.35601 41.6524 6.1361 45.7283 9.73705 49.2657C10.6214 50.1175 11.5675 50.9074 12.5463 51.667C12.8308 51.667 12.8617 51.4133 12.9265 51.2246C13.0505 50.8209 13.1466 50.4085 13.211 49.9918L13.8452 45.2546L13.4937 0.838365H13.4942Z" fill="#6CAC48"/>
<path d="M15.0419 53.0533C15.1054 52.3282 15.4534 51.7266 15.8323 51.1267C15.4516 50.9692 15.1689 50.6556 14.9479 50.3059C14.7574 49.9905 14.5999 49.6116 14.4768 49.2636C14.0344 47.9368 13.9404 46.5448 13.8134 45.1894V44.3685C13.656 44.4951 13.6229 45.5683 13.6229 45.7279C13.5346 47.1569 13.3384 48.5902 13.0539 49.9931C12.9595 50.5621 12.8964 51.1293 12.5463 51.6348C12.5463 51.6983 12.5463 51.7614 12.5771 51.8562C13.1461 53.531 13.3023 55.2362 13.398 56.9744V57.6087C13.398 58.366 13.3671 58.2063 13.9961 58.4604C14.2497 58.5548 14.5325 58.587 14.7861 58.7758C14.9766 58.7758 15.0075 58.6183 15.0075 58.4913L14.9131 57.449V54.5419C14.8822 54.0343 14.9766 53.5305 15.0397 53.0559L15.0419 53.0533Z" fill="#C2BFBF"/>
</svg>
