<svg width="59" height="59" viewBox="0 0 59 59" fill="none" xmlns="http://www.w3.org/2000/svg">
<path d="M34.6712 0.4375C34.2502 0.4375 33.8592 0.527727 33.4983 0.648022C34.2652 1.15929 34.6863 1.83597 34.8968 2.60288C34.9119 2.70814 34.9419 2.78333 34.957 2.88858C34.972 2.97881 34.987 3.06903 34.987 3.15926C35.0472 4.48254 34.6411 4.64795 34.3554 5.42989C33.9194 6.4374 34.0396 7.52008 34.566 8.39225C34.6111 8.49751 34.6712 8.61781 34.7464 8.72307C34.175 4.91862 37.3479 4.3472 37.9343 3.15926C37.9794 2.12168 37.1223 1.42996 36.4456 0.948768C35.799 0.557799 35.2126 0.4375 34.6712 0.4375ZM39.4531 1.29463C39.3929 1.64049 39.438 1.55026 39.423 1.73071C39.408 1.85101 39.408 2.00138 39.393 2.12168C39.3629 2.24198 39.3328 2.36228 39.2877 2.48258C39.2577 2.60288 39.2125 2.72318 39.1674 2.84347C39.1073 2.96378 39.0622 3.06903 39.002 3.18933C38.9569 3.24951 38.9268 3.30963 38.8817 3.36978C38.8517 3.41489 38.8215 3.46 38.7915 3.50512C38.7163 3.61038 38.6411 3.71564 38.5659 3.80586C38.4757 3.89609 38.4005 4.00134 38.2953 4.07654C38.2953 4.09159 38.2953 4.09159 38.2953 4.09159C38.205 4.16678 38.1148 4.257 38.0096 4.33219C37.6938 4.57278 37.3329 4.75323 37.0021 4.97879C36.8968 5.05398 36.7915 5.11413 36.7013 5.20436C36.5961 5.27954 36.5058 5.35472 36.4156 5.44495C36.3103 5.53517 36.2352 5.6254 36.1449 5.73066C36.0697 5.82089 35.9795 5.92615 35.9194 6.03141C35.8442 6.13667 35.769 6.24193 35.7088 6.34719C35.6487 6.46749 35.6036 6.57275 35.5434 6.69305C35.4983 6.81334 35.4532 6.91861 35.4231 7.0389C35.378 7.17424 35.3479 7.29454 35.3179 7.41484C35.3028 7.47502 35.3028 7.55018 35.2878 7.61033C35.2727 7.6705 35.2727 7.73062 35.2578 7.79078C35.2578 7.91107 35.2427 8.04641 35.2427 8.16671C35.2427 8.25693 35.2427 8.34716 35.2578 8.43738C35.2578 8.55768 35.2728 8.67797 35.3029 8.81331C35.3179 8.93361 35.348 9.05391 35.3781 9.17421C35.4232 9.29451 35.4533 9.41481 35.4984 9.5351C35.5284 9.6103 35.5736 9.68548 35.6036 9.74562L32.145 8.4073C31.5586 8.24189 30.9872 8.09152 30.4007 7.95619C30.0849 7.881 29.7692 7.80581 29.4534 7.73062C28.5511 7.55018 27.6339 7.41484 26.7166 7.32462C26.6865 7.32462 26.6715 7.30956 26.6414 7.30956C25.7391 7.21934 24.8519 7.17423 23.9497 7.17423C23.2881 7.17423 22.6264 7.20428 21.9798 7.24941C21.0625 7.30959 20.1453 7.42986 19.228 7.58023C19.0024 7.61028 18.7769 7.65542 18.5513 7.70054C18.0851 7.79075 17.634 7.89602 17.1979 8.00128C16.9724 8.06145 16.7468 8.12158 16.5213 8.18173C16.2957 8.27195 16.0852 8.37721 15.8747 8.46744C15.7092 8.54262 15.5438 8.61781 15.3784 8.693C15.3484 8.70806 15.3183 8.70806 15.3032 8.72305C15.1529 8.79824 15.0175 8.85838 14.8822 8.93357C14.8371 8.94863 14.807 8.96362 14.7769 8.97869C14.6115 9.05387 14.4461 9.14409 14.3108 9.21928C14.2055 9.26439 14.1003 9.32454 14.01 9.36966C13.9649 9.39971 13.9048 9.42983 13.8747 9.44484C13.7394 9.52003 13.604 9.59521 13.4837 9.6704C13.3484 9.74559 13.2281 9.82077 13.1228 9.89596C13.0176 9.97115 12.9123 10.0313 12.8221 10.1065C12.807 10.1215 12.792 10.1215 12.777 10.1365C12.6867 10.1967 12.5815 10.2719 12.4913 10.3471C12.4913 10.3471 12.4762 10.3621 12.4612 10.3771C12.386 10.4373 12.3108 10.4974 12.2356 10.5576C12.2056 10.5726 12.1755 10.6027 12.1454 10.6177C12.0702 10.6779 11.995 10.7531 11.9199 10.8132C11.9048 10.8433 11.8748 10.8583 11.8597 10.8734C11.7695 10.9636 11.6792 11.0388 11.589 11.129C11.574 11.129 11.574 11.1441 11.559 11.1591C11.4687 11.2343 11.3785 11.3245 11.2883 11.4147C11.2732 11.4298 11.2732 11.4448 11.2582 11.4448C11.1831 11.5199 11.1079 11.5951 11.0327 11.6854C11.0026 11.7154 10.9575 11.7455 10.9274 11.7756C10.8522 11.8658 10.762 11.956 10.6718 12.0463C10.6567 12.0763 10.6267 12.0914 10.6116 12.1214C10.4913 12.2417 10.3861 12.362 10.2658 12.4823C10.2507 12.4974 10.2357 12.5124 10.2206 12.5274C9.98004 12.7831 9.72441 13.0387 9.45374 13.2643C9.18307 13.5049 8.89736 13.7304 8.61165 13.9259C8.3109 14.1364 8.02519 14.3169 7.70941 14.4973C7.40866 14.6627 7.09288 14.8131 6.76206 14.9485C6.44627 15.0838 6.11545 15.2041 5.78463 15.3093C5.15306 15.4447 4.50645 15.7003 3.95007 15.7454C3.82978 15.7454 3.69444 15.7755 3.57414 15.7905C3.43881 15.8206 3.31851 15.8507 3.19821 15.8808C3.07792 15.9259 2.95761 15.971 2.83731 16.0161C2.71702 16.0612 2.59672 16.1214 2.47642 16.1815C2.37116 16.2567 2.25086 16.3169 2.1456 16.392C2.04034 16.4672 1.93507 16.5574 1.84485 16.6477C1.73959 16.7229 1.63433 16.8281 1.5441 16.9183C1.45388 17.0236 1.36365 17.1138 1.28847 17.2191C1.21328 17.3394 1.12306 17.4447 1.06291 17.565C0.987722 17.6702 0.912538 17.7905 0.852385 17.9108C0.792212 18.0461 0.732088 18.1664 0.686976 18.3018C0.641864 18.4221 0.596751 18.5574 0.551639 18.6928C0.521588 18.813 0.491466 18.9333 0.476454 19.0536C0.476454 19.0687 0.461394 19.0837 0.461394 19.0988C0.431342 19.2341 0.431342 19.4145 0.416281 19.5048C0.401221 19.61 0.38623 19.7003 0.38623 19.8055C0.38623 19.8657 0.38623 19.9408 0.401291 20.001C0.416351 20.1063 0.431342 20.1965 0.461464 20.2867C0.491515 20.3769 0.521638 20.4672 0.566722 20.5574C0.566722 20.5724 0.566722 20.5724 0.566722 20.5724C0.611834 20.6627 0.671986 20.7529 0.732131 20.8431C0.792304 20.9333 0.852435 21.0236 0.92762 21.1138C1.0028 21.189 1.09303 21.2792 1.18325 21.3544C1.27348 21.4446 1.3637 21.5198 1.46896 21.595C1.82986 21.9108 1.92008 22.016 2.38624 22.2566C2.46142 22.3017 2.53662 22.3318 2.62684 22.3769C2.6419 22.3769 2.65689 22.392 2.67195 22.392C2.67195 22.422 2.67195 22.4371 2.68702 22.4672C2.70208 22.5875 2.73213 22.7078 2.7622 22.8281C2.79225 22.9634 2.83739 23.0837 2.88251 23.189C2.92762 23.2792 2.95769 23.3694 3.0028 23.4596C3.01786 23.4897 3.03285 23.5198 3.04792 23.5348C3.10809 23.6551 3.16821 23.7604 3.22836 23.8656C3.30355 23.9709 3.37873 24.0762 3.45392 24.1814C3.5291 24.2716 3.61933 24.3769 3.70955 24.4671C3.79978 24.5574 3.89 24.6325 3.99527 24.7228C3.99527 24.7228 4.01033 24.7378 4.02532 24.7378C4.11554 24.813 4.20577 24.8882 4.29599 24.9484C4.40125 25.0236 4.50651 25.0837 4.62681 25.1439C4.73207 25.204 4.85237 25.2642 4.97267 25.3093C5.06289 25.3544 5.16815 25.3845 5.27342 25.4145C5.28848 25.4296 5.30347 25.4296 5.33359 25.4446C5.39376 25.4597 5.46892 25.4746 5.52907 25.4897C5.48396 26.3017 5.4689 27.0686 5.58924 27.3393C5.72458 27.64 6.38622 26.7228 7.04786 25.6701C6.95764 26.7077 6.89749 27.9257 7.04786 28.2866C7.21327 28.6626 8.11551 27.4897 8.89745 26.1964C19.5589 23.7303 29.2881 31.0986 30.3106 41.5044C30.1151 39.8804 28.1152 38.9782 27.1979 39.2037C26.7468 40.3165 25.9799 41.745 24.7468 42.6322C24.8521 41.6398 24.807 40.6172 24.5964 39.6248C24.2656 41.0082 23.619 42.3014 22.7318 43.4142C21.3032 43.5194 19.8747 42.8277 19.1228 41.7902C19.0627 41.745 19.0476 41.6548 19.0025 41.5947C18.9574 41.4894 18.9123 41.3841 18.8822 41.2789C18.8371 41.1736 18.8071 41.0684 18.792 40.9631C18.777 40.8578 18.777 40.7526 18.777 40.6323C18.777 40.5571 18.777 40.4819 18.777 40.4067C18.792 40.3015 18.8221 40.1962 18.8521 40.0909C18.8822 39.9857 18.9123 39.8804 18.9574 39.7751C19.0176 39.6699 19.0627 39.5646 19.1378 39.4594C19.3935 38.7376 19.3935 38.1511 18.9273 37.8053C18.8371 37.7451 18.7469 37.7 18.6416 37.6549C18.5814 37.6398 18.5063 37.6098 18.4461 37.5947C18.401 37.5797 18.3709 37.5647 18.3258 37.5496C18.2206 37.5195 18.1153 37.4894 18.01 37.4744C17.9048 37.4444 17.7995 37.4293 17.6943 37.4293C17.589 37.4142 17.4687 37.3993 17.3634 37.3993C17.2883 37.3993 17.2131 37.4143 17.1379 37.4143C17.0176 37.4143 16.9123 37.4294 16.8071 37.4594C16.7018 37.4745 16.5965 37.4895 16.4913 37.5196C16.386 37.5496 16.2808 37.5798 16.1755 37.6249C16.0702 37.67 15.98 37.7151 15.8747 37.7602C15.7845 37.8053 15.6943 37.8655 15.589 37.9106C12.0853 40.1962 14.1755 45.5495 16.5665 47.0984C15.6642 47.2638 14.7469 47.4593 14.4913 47.6548C14.4763 47.6698 14.4613 47.6848 14.4613 47.6848C15.1079 48.0758 15.7845 48.4066 16.4913 48.6923C17.4537 49.0081 18.4762 49.2938 18.9273 49.4141V49.4291C20.1754 49.6848 21.4386 49.775 22.7168 49.6998C29.3783 49.2337 34.8368 44.1661 35.8293 37.4895C35.8594 37.6249 35.8895 37.7451 35.9195 37.8805C35.9646 38.1511 36.0248 38.4369 36.0549 38.7226C36.0549 38.7226 36.0549 38.7226 36.0549 38.7377C36.0849 38.873 36.1 39.0083 36.115 39.1286C36.115 39.1587 36.115 39.1737 36.115 39.1888C36.1301 39.3241 36.1451 39.4595 36.1451 39.5798C36.1601 39.7452 36.1751 39.9106 36.1751 40.076C36.1751 40.1512 36.1751 40.2264 36.1751 40.3166C36.1751 40.3918 36.1902 40.482 36.1902 40.5572C36.1902 40.6474 36.1751 40.7376 36.1751 40.8279C36.1751 40.9031 36.1751 40.9782 36.1751 41.0384C36.1751 41.1437 36.1601 41.2339 36.1601 41.3391C36.1601 41.3993 36.1601 41.4594 36.145 41.5346C36.145 41.6399 36.13 41.7451 36.13 41.8654C36.1149 41.9105 36.1149 41.9557 36.1149 42.0008C36.0998 42.1211 36.0848 42.2263 36.0698 42.3466C36.0698 42.3918 36.0698 42.4369 36.0547 42.482C36.0396 42.6323 36.0096 42.7677 35.9945 42.9181V42.9331V42.9482C35.9645 43.0835 35.9344 43.2339 35.9043 43.3692C35.9043 43.3843 35.9043 43.3993 35.9043 43.4143C35.8743 43.5497 35.8441 43.685 35.8141 43.8203C35.8141 43.8354 35.799 43.8655 35.799 43.8805C35.769 44.0159 35.7388 44.1512 35.6938 44.2865C35.6938 44.3016 35.6938 44.3166 35.6938 44.3316C35.6487 44.482 35.6035 44.6173 35.5735 44.7527C35.5584 44.7677 35.5584 44.7827 35.5584 44.7827C35.5133 44.9331 35.4682 45.0835 35.4231 45.2339C35.3629 45.3842 35.3178 45.5196 35.2577 45.6699C35.1975 45.8203 35.1524 45.9707 35.0923 46.106C35.0321 46.2564 34.972 46.3917 34.9118 46.5421H34.8967C34.8366 46.6774 34.7764 46.8278 34.7012 46.9632C34.6862 47.0083 34.6712 47.0383 34.6561 47.0684C34.6411 47.0835 34.6411 47.0985 34.6261 47.1135C33.6487 49.0834 32.2051 50.8127 30.4006 52.1661C30.2803 52.2413 30.16 52.3315 30.0397 52.4217C30.0096 52.4518 29.9645 52.4668 29.9344 52.4969C29.8292 52.5721 29.7239 52.6473 29.6036 52.7224L29.6487 52.8127H29.6638C29.8743 52.7826 30.0848 52.7525 30.2954 52.7224H30.3104C30.7014 52.6623 31.0923 52.5871 31.4833 52.5119C31.5886 52.4968 31.7089 52.4668 31.8141 52.4367C31.8893 52.4217 31.9495 52.4067 32.0247 52.3916C32.1299 52.3765 32.2352 52.3465 32.3405 52.3315C32.4307 52.3014 32.5209 52.2863 32.6111 52.2563C34.1148 51.8954 35.5735 51.3991 36.9719 50.8127C34.581 54.0758 31.3781 56.7073 27.6338 58.4366C29.3631 58.3163 31.0923 58.0306 32.7615 57.5494C38.8215 55.7599 43.9192 51.6848 46.9718 46.1962C46.3552 49.6698 44.9718 52.9781 42.9267 55.8652C44.3853 54.9028 45.7237 53.7901 46.9417 52.5269C50.3101 49.0082 52.5205 44.5421 53.2724 39.7452C53.7837 42.1211 53.9341 44.5722 53.7085 46.9932C64.5654 31.8506 54.6107 16.1516 50.4454 12.0164C50.4303 11.9863 50.4153 11.9713 50.4153 11.9412C50.4003 11.9562 50.4003 11.9562 50.4003 11.9712C50.4003 11.9562 50.4003 11.9562 50.3852 11.9412C50.3852 12.1216 50.3701 12.3021 50.3552 12.4825C50.31 12.8284 50.2649 13.1592 50.2048 13.49C50.1296 13.8209 50.0394 14.1517 49.9491 14.4825C49.8439 14.7983 49.7236 15.1291 49.5882 15.4449C49.4529 15.7456 49.3025 16.0614 49.1371 16.3622C48.9717 16.6479 48.7913 16.9486 48.5958 17.2193C48.4003 17.505 48.1898 17.7757 47.9793 18.0313C47.7537 18.302 47.5131 18.5426 47.2725 18.7832C47.1221 18.9185 46.9868 19.0388 46.8364 19.1591C46.7161 19.2644 46.6109 19.3546 46.4906 19.4598C46.2199 19.6704 45.9492 19.8659 45.6485 20.0463C45.3628 20.2267 45.062 20.4072 44.7613 20.5576C44.4455 20.7079 44.1297 20.8433 43.8139 20.9786C43.4981 21.0989 43.1673 21.2042 42.8365 21.2944C42.5057 21.3846 42.1598 21.4598 41.829 21.52C41.4831 21.5801 41.1373 21.6102 40.8064 21.6403C40.5658 21.6553 40.3253 21.6703 40.0847 21.6703C39.7388 21.6703 39.3929 21.6403 39.0621 21.6101C38.7163 21.5801 38.3704 21.5349 38.0396 21.4598C37.6937 21.3996 37.3629 21.3094 37.0321 21.2041H37.017C37.3478 21.1741 37.6787 21.144 38.0095 21.0838C38.3553 21.0237 38.6862 20.9485 39.017 20.8583C39.3478 20.768 39.6786 20.6628 39.9944 20.5425C40.3252 20.4222 40.641 20.2718 40.9418 20.1214C41.2575 19.9711 41.5433 19.8057 41.844 19.6252C42.1297 19.4297 42.4154 19.2342 42.6861 19.0237C42.9568 18.8132 43.2124 18.5876 43.453 18.347C43.7086 18.1215 43.9342 17.8658 44.1598 17.6102C44.3853 17.3395 44.5958 17.0689 44.7913 16.7982C44.8214 16.7531 44.8515 16.6929 44.8815 16.6478C45.0319 16.4072 45.1823 16.1666 45.3176 15.926C45.483 15.6253 45.6334 15.3245 45.7687 15.0088C45.9041 14.693 46.0244 14.3772 46.1296 14.0464C46.2349 13.7306 46.3101 13.3998 46.3853 13.0689C46.4455 12.7231 46.5056 12.3923 46.5357 12.0614C46.5657 11.7156 46.5958 11.3697 46.5958 11.0389C46.5958 10.7983 46.5807 10.5577 46.5658 10.3171C46.5357 9.97125 46.4906 9.64042 46.4455 9.30961C46.3853 8.96375 46.3101 8.63293 46.2199 8.3021C46.1147 7.98632 46.0094 7.6555 45.8891 7.33972C45.7688 7.02393 45.6184 6.70815 45.468 6.4074C45.3026 6.10665 45.1372 5.80591 44.9568 5.5202C44.7613 5.2345 44.5658 4.96382 44.3553 4.69315C44.1297 4.43751 43.9042 4.18188 43.6636 3.92624C43.5433 3.80595 43.4079 3.67061 43.2726 3.55031C42.5959 3.024 41.8892 2.52777 41.1824 2.07665C41.0772 2.01648 40.9869 1.97139 40.8817 1.92628C40.3854 1.6105 39.9193 1.44508 39.4531 1.29471L39.4531 1.29463Z" fill="#E0234E"/>
</svg>
