<svg width="96" height="59" viewBox="0 0 96 59" fill="none" xmlns="http://www.w3.org/2000/svg">
<g clip-path="url(#clip0_357_946)">
<path d="M22.6347 15.5651H40.7291V17.006H24.2932V27.8528H39.7484V29.2936H24.2932V41.2026H40.9166V42.6453H22.6347V15.5651ZM42.3498 15.5651H44.2715L52.7915 27.4741L61.5007 15.5651L73.3416 0.4375L53.8839 28.7256L63.9185 42.6453H61.9116L52.7915 29.9733L43.6316 42.6415H41.672L51.7729 28.7218L42.3498 15.5651ZM64.6266 17.006V15.5651H85.2449V17.006H75.7461V42.6434H74.0875V17.006H64.6209H64.6266ZM0 15.5651H2.08265L30.6718 58.4375L18.8575 42.6453L1.73428 17.6118L1.65855 42.6453H0V15.5651ZM85.0783 40.7652C84.9583 40.7675 84.8403 40.734 84.7395 40.6689C84.6386 40.6038 84.5595 40.5102 84.5121 40.3999C84.4647 40.2897 84.4512 40.1678 84.4733 40.0499C84.4955 39.9319 84.5523 39.8232 84.6365 39.7377C84.7207 39.6522 84.8284 39.5937 84.946 39.5696C85.0636 39.5456 85.1857 39.5572 85.2967 39.6028C85.4077 39.6485 85.5025 39.7261 85.5692 39.826C85.6358 39.9258 85.6712 40.0432 85.6709 40.1632C85.6729 40.242 85.6591 40.3204 85.6301 40.3938C85.6012 40.4671 85.5578 40.5339 85.5024 40.5901C85.4471 40.6463 85.3811 40.6907 85.3082 40.7208C85.2353 40.7509 85.1571 40.766 85.0783 40.7652ZM86.7084 39.1786H87.5964C87.5965 39.2907 87.6199 39.4016 87.665 39.5041C87.7102 39.6067 87.7761 39.6988 87.8587 39.7746C87.9413 39.8504 88.0387 39.9083 88.1447 39.9445C88.2508 39.9808 88.3632 39.9946 88.4749 39.9852C89.0524 39.9852 89.3799 39.6368 89.3799 38.9855V34.8581H90.283V38.9912C90.283 40.1651 89.6052 40.841 88.4844 40.841C87.4317 40.841 86.7084 40.1859 86.7084 39.1805V39.1786ZM91.4644 39.1275H92.36C92.4376 39.6804 92.9772 40.0325 93.7554 40.0325C94.4824 40.0325 95.0144 39.6539 95.0144 39.1389C95.0144 38.6939 94.6755 38.427 93.9049 38.2452L93.1476 38.0559C92.0949 37.8079 91.614 37.2986 91.614 36.439C91.614 35.3996 92.4603 34.7066 93.7308 34.7066C94.9141 34.7066 95.7774 35.3996 95.8304 36.3822H94.9501C94.8649 35.8445 94.3972 35.5075 93.7194 35.5075C93.0056 35.5075 92.5304 35.8521 92.5304 36.3784C92.5304 36.7949 92.8371 37.0354 93.5944 37.2134L94.2363 37.3705C95.431 37.6488 95.9232 38.1278 95.9232 39.0139C95.9232 40.131 95.058 40.8315 93.6796 40.8315C92.3884 40.8315 91.5212 40.1632 91.4569 39.118L91.4644 39.1275Z" fill="#1A1A1A"/>
</g>
<defs>
<clipPath id="clip0_357_946">
<rect width="95.9308" height="58" fill="white" transform="translate(0 0.4375)"/>
</clipPath>
</defs>
</svg>
