<svg width="53" height="59" viewBox="0 0 53 59" fill="none" xmlns="http://www.w3.org/2000/svg">
<path fill-rule="evenodd" clip-rule="evenodd" d="M33.0752 41.5398C23.7767 41.5398 21.8273 37.2728 21.8273 33.6903C21.8273 33.3505 22.1011 33.0767 22.4409 33.0767H25.188C25.4901 33.0767 25.745 33.2985 25.7922 33.5959C26.2075 36.3949 27.4395 37.8062 33.0658 37.8062C37.5451 37.8062 39.4473 36.7961 39.4473 34.4172C39.4473 33.0484 38.9045 32.0336 31.9471 31.3539C26.1273 30.778 22.5306 29.4989 22.5306 24.8402C22.5306 20.5544 26.1462 18.0009 32.2067 18.0009C39.013 18.0009 42.3831 20.3609 42.8079 25.4397C42.8221 25.6143 42.7607 25.7842 42.6427 25.9117C42.5247 26.0344 42.3595 26.1099 42.1896 26.1099H39.4331C39.1452 26.1099 38.895 25.9069 38.8384 25.6332C38.1729 22.6926 36.568 21.7486 32.1973 21.7486C27.3073 21.7486 26.7409 23.4525 26.7409 24.7269C26.7409 26.2751 27.4111 26.7282 34.0098 27.6014C40.5423 28.4699 43.6434 29.6924 43.6434 34.285C43.6434 38.9154 39.7824 41.5681 33.0469 41.5681L33.0752 41.5398ZM26.5096 58.4375C25.7308 58.4375 24.9614 58.2346 24.2817 57.8428L17.1875 53.642C16.1255 53.0472 16.6447 52.8396 16.994 52.7168C18.4053 52.2212 18.6932 52.1127 20.2036 51.2536C20.3641 51.1639 20.5718 51.197 20.7323 51.2914L26.1839 54.5246C26.3822 54.6332 26.6606 54.6332 26.8447 54.5246L48.0991 42.2572C48.2974 42.1439 48.4248 41.9174 48.4248 41.6814V17.1607C48.4248 16.9152 48.2974 16.6981 48.0944 16.5754L26.8447 4.31742C26.6465 4.19942 26.3869 4.19942 26.1886 4.31742L4.94841 16.5754C4.74072 16.6934 4.61328 16.92 4.61328 17.156V41.6814C4.61328 41.9174 4.74072 42.1392 4.94369 42.2525L10.7635 45.6132C13.9212 47.1944 15.8564 45.33 15.8564 43.4608V19.2517C15.8564 18.9071 16.1255 18.6381 16.4748 18.6381H19.1652C19.5003 18.6381 19.7788 18.9024 19.7788 19.2517V43.4703C19.7788 47.6853 17.4801 50.1019 13.487 50.1019C12.2598 50.1019 11.2874 50.1019 8.58756 48.7709L3.00374 45.5565C1.62549 44.7588 0.775879 43.272 0.775879 41.6814V17.156C0.775879 15.5606 1.62549 14.0691 3.00374 13.2808L24.277 1.00867C25.6222 0.248739 27.4111 0.248739 28.7469 1.00867L49.9966 13.2855C51.3701 14.0785 52.2244 15.5606 52.2244 17.1607V41.6861C52.2244 43.2767 51.3701 44.7588 49.9966 45.5612L28.7469 57.8334C28.0672 58.2251 27.2931 58.4281 26.5096 58.4281V58.4375Z" fill="#689F63"/>
</svg>
