<svg width="48" height="43" viewBox="0 0 48 43" fill="none" xmlns="http://www.w3.org/2000/svg">
<path d="M47.9045 21.3255C47.9045 18.1591 43.9392 15.1582 37.8595 13.2973C39.2625 7.10078 38.639 2.17082 35.8914 0.592459C35.2582 0.222226 34.5177 0.0468522 33.709 0.0468522V2.21954C34.1572 2.21954 34.5177 2.30723 34.8197 2.47286C36.1448 3.23281 36.7196 6.12648 36.2714 9.8483C36.1643 10.7641 35.9889 11.7287 35.7745 12.7127C33.8649 12.2451 31.7799 11.8846 29.5877 11.6508C28.2724 9.8483 26.9084 8.21148 25.5347 6.77926C28.7109 3.82713 31.6922 2.2098 33.7188 2.2098V0.0371094C31.0394 0.0371094 27.532 1.94674 23.9855 5.25935C20.4391 1.96622 16.9316 0.0760815 14.2523 0.0760815V2.24877C16.2691 2.24877 19.2602 3.85636 22.4364 6.789C21.0724 8.22122 19.7084 9.8483 18.4125 11.6508C16.2106 11.8846 14.1256 12.2451 12.216 12.7225C11.9919 11.7482 11.8263 10.8031 11.7094 9.89701C11.2514 6.17519 11.8165 3.28152 13.1318 2.51183C13.4241 2.33645 13.8041 2.25851 14.2523 2.25851V0.0858243C13.4339 0.0858243 12.6934 0.261198 12.0504 0.631431C9.31259 2.2098 8.69878 7.13 10.1115 13.3071C4.05138 15.1777 0.105469 18.1688 0.105469 21.3255C0.105469 24.492 4.07086 27.4928 10.1505 29.3538C8.74749 35.5503 9.37105 40.4803 12.1186 42.0586C12.7519 42.4288 13.4923 42.6042 14.3107 42.6042C16.9901 42.6042 20.4975 40.6946 24.044 37.382C27.5904 40.6751 31.0979 42.5653 33.7772 42.5653C34.5956 42.5653 35.3361 42.3899 35.9791 42.0196C38.7169 40.4413 39.3307 35.5211 37.918 29.344C43.9586 27.4831 47.9045 24.4823 47.9045 21.3255ZM35.2192 14.827C34.8587 16.0838 34.4105 17.3796 33.9039 18.6754C33.5044 17.896 33.0855 17.1166 32.6275 16.3371C32.1794 15.5577 31.702 14.7977 31.2246 14.0573C32.6081 14.2619 33.9428 14.5152 35.2192 14.827ZM30.7569 25.2032C29.9969 26.5185 29.2175 27.7657 28.4088 28.9251C26.9571 29.0517 25.4859 29.1199 24.005 29.1199C22.5338 29.1199 21.0626 29.0517 19.6207 28.9348C18.812 27.7754 18.0228 26.538 17.2629 25.2325C16.5224 23.9561 15.8501 22.6603 15.2363 21.3548C15.8404 20.0492 16.5224 18.7436 17.2531 17.4673C18.0131 16.152 18.7925 14.9049 19.6012 13.7455C21.0529 13.6188 22.5241 13.5506 24.005 13.5506C25.4762 13.5506 26.9474 13.6188 28.3893 13.7358C29.198 14.8952 29.9872 16.1325 30.7472 17.4381C31.4876 18.7144 32.1599 20.0102 32.7737 21.3158C32.1599 22.6214 31.4876 23.9269 30.7569 25.2032ZM33.9039 23.9367C34.43 25.2422 34.8782 26.5478 35.2484 27.8144C33.9721 28.1261 32.6275 28.3892 31.2343 28.5938C31.7117 27.8436 32.1891 27.0739 32.6373 26.2847C33.0855 25.5053 33.5044 24.7161 33.9039 23.9367ZM24.0245 34.3324C23.1184 33.3971 22.2123 32.3546 21.3159 31.2147C22.1928 31.2536 23.0892 31.2829 23.9953 31.2829C24.9111 31.2829 25.8172 31.2634 26.7038 31.2147C25.8269 32.3546 24.9208 33.3971 24.0245 34.3324ZM16.7757 28.5938C15.3922 28.3892 14.0574 28.1359 12.7811 27.8241C13.1416 26.5673 13.5898 25.2715 14.0964 23.9756C14.4959 24.7551 14.9148 25.5345 15.3727 26.3139C15.8306 27.0934 16.2983 27.8533 16.7757 28.5938ZM23.9758 8.31865C24.8819 9.25398 25.788 10.2965 26.6843 11.4364C25.8075 11.3974 24.9111 11.3682 24.005 11.3682C23.0892 11.3682 22.1831 11.3877 21.2965 11.4364C22.1733 10.2965 23.0794 9.25398 23.9758 8.31865ZM16.766 14.0573C16.2886 14.8075 15.8112 15.5772 15.363 16.3664C14.9148 17.1458 14.4959 17.9252 14.0964 18.7047C13.5703 17.3991 13.1221 16.0936 12.7519 14.827C14.0282 14.5249 15.3727 14.2619 16.766 14.0573ZM7.94857 26.2555C4.49956 24.7843 2.26841 22.8552 2.26841 21.3255C2.26841 19.7959 4.49956 17.857 7.94857 16.3956C8.78647 16.0351 9.70231 15.7136 10.6474 15.4115C11.2027 17.3212 11.9335 19.3087 12.8395 21.345C11.9432 23.3716 11.2222 25.3494 10.6766 27.2493C9.71205 26.9472 8.79621 26.616 7.94857 26.2555ZM13.1903 40.1782C11.8652 39.4183 11.2904 36.5246 11.7386 32.8028C11.8458 31.8869 12.0211 30.9224 12.2355 29.9383C14.1451 30.406 16.2301 30.7665 18.4223 31.0003C19.7376 32.8028 21.1016 34.4396 22.4754 35.8718C19.2991 38.8239 16.3178 40.4413 14.2913 40.4413C13.8528 40.4315 13.4826 40.3438 13.1903 40.1782ZM36.3007 32.7541C36.7586 36.4759 36.1935 39.3696 34.8782 40.1392C34.5859 40.3146 34.2059 40.3926 33.7577 40.3926C31.7409 40.3926 28.7498 38.785 25.5736 35.8523C26.9376 34.4201 28.3017 32.793 29.5975 30.9906C31.7994 30.7568 33.8844 30.3963 35.794 29.9189C36.0181 30.9029 36.1935 31.848 36.3007 32.7541ZM40.0517 26.2555C39.2138 26.616 38.298 26.9375 37.3529 27.2395C36.7975 25.3299 36.0668 23.3423 35.1607 21.3061C36.0571 19.2795 36.7781 17.3017 37.3237 15.4018C38.2882 15.7038 39.2041 16.0351 40.0614 16.3956C43.5105 17.8668 45.7416 19.7959 45.7416 21.3255C45.7319 22.8552 43.5007 24.794 40.0517 26.2555Z" fill="#61DAFB"/>
</svg>

