<svg width="60" height="59" viewBox="0 0 60 59" fill="none" xmlns="http://www.w3.org/2000/svg">
<path d="M13.2163 37.1043C13.2163 40.4772 10.4906 43.1981 7.12248 43.1981C3.75434 43.1981 1.02393 40.4725 1.02393 37.1043C1.02393 33.7315 3.74961 31.0105 7.11775 31.0105H13.2116V37.1043H13.2163ZM16.2632 37.1043C16.2632 33.7315 18.9889 31.0105 22.357 31.0105C25.7252 31.0105 28.4509 33.7362 28.4509 37.1043V52.3436C28.4509 55.7165 25.7252 58.4374 22.357 58.4374C18.9889 58.4374 16.2632 55.7118 16.2632 52.3436V37.1043Z" fill="#E01E5A"/>
<path d="M22.3569 12.6298C18.9841 12.6298 16.2631 9.9041 16.2631 6.53597C16.2631 3.1631 18.9888 0.442139 22.3569 0.442139C25.7251 0.442139 28.4507 3.16783 28.4507 6.53597V12.6298H22.3569ZM22.3569 15.7239C25.7298 15.7239 28.4507 18.4496 28.4507 21.8178C28.4507 25.1906 25.7251 27.9116 22.3569 27.9116H7.07039C3.70225 27.9163 0.976562 25.1906 0.976562 21.8178C0.976562 18.4449 3.70225 15.7239 7.07039 15.7239H22.3569Z" fill="#36C5F0"/>
<path d="M46.7844 21.8179C46.7844 18.445 49.5101 15.724 52.8782 15.724C56.2511 15.724 58.972 18.4497 58.972 21.8179C58.972 25.1907 56.2463 27.9117 52.8782 27.9117H46.7844V21.8179ZM43.7375 21.8179C43.7375 25.1907 41.0118 27.9117 37.6436 27.9117C34.2708 27.9117 31.5498 25.186 31.5498 21.8179V6.53133C31.5498 3.15846 34.2755 0.4375 37.6436 0.4375C41.0165 0.4375 43.7375 3.16319 43.7375 6.53133V21.8179Z" fill="#2EB67D"/>
<path d="M37.6436 46.2451C41.0165 46.2451 43.7375 48.9708 43.7375 52.3389C43.7375 55.7118 41.0118 58.4327 37.6436 58.4327C34.2708 58.4327 31.5498 55.707 31.5498 52.3389V46.2451H37.6436ZM37.6436 43.1981C34.2708 43.1981 31.5498 40.4725 31.5498 37.1043C31.5498 33.7315 34.2755 31.0105 37.6436 31.0105H52.9302C56.303 31.0105 59.024 33.7362 59.024 37.1043C59.024 40.4772 56.2983 43.1981 52.9302 43.1981H37.6436Z" fill="#ECB22E"/>
</svg>
