<svg width="59" height="59" viewBox="0 0 59 59" fill="none" xmlns="http://www.w3.org/2000/svg">
<g clip-path="url(#clip0_357_951)">
<path fill-rule="evenodd" clip-rule="evenodd" d="M7.75 0.4375H51.25C53.1728 0.4375 55.0169 1.20134 56.3765 2.56098C57.7362 3.92061 58.5 5.76468 58.5 7.6875V51.1875C58.5 53.1103 57.7362 54.9544 56.3765 56.314C55.0169 57.6737 53.1728 58.4375 51.25 58.4375H7.75C5.82718 58.4375 3.98311 57.6737 2.62348 56.314C1.26384 54.9544 0.5 53.1103 0.5 51.1875L0.5 7.6875C0.5 5.76468 1.26384 3.92061 2.62348 2.56098C3.98311 1.20134 5.82718 0.4375 7.75 0.4375Z" fill="#0079BF"/>
<path fill-rule="evenodd" clip-rule="evenodd" d="M36.7502 7.9895H47.4788C48.4023 7.99075 49.2876 8.35815 49.9406 9.01115C50.5936 9.66414 50.961 10.5494 50.9622 11.4729V29.8811C50.961 30.8041 50.5934 31.6889 49.9403 32.3412C49.2872 32.9934 48.4019 33.3598 47.4788 33.3598H36.7502C35.8276 33.3598 34.9427 32.9933 34.2904 32.3409C33.638 31.6885 33.2715 30.8037 33.2715 29.8811V11.4729C33.2715 10.5499 33.6378 9.66456 34.2901 9.01143C34.9423 8.3583 35.8271 7.99075 36.7502 7.9895Z" fill="white"/>
<path fill-rule="evenodd" clip-rule="evenodd" d="M11.5215 7.9895H22.2502C23.1732 7.99075 24.058 8.3583 24.7102 9.01143C25.3625 9.66456 25.7288 10.5499 25.7288 11.4729V44.3717C25.7288 45.2943 25.3623 46.1791 24.71 46.8315C24.0576 47.4838 23.1728 47.8503 22.2502 47.8503H11.5215C10.6009 47.8466 9.71923 47.4786 9.06916 46.8268C8.41909 46.1749 8.05349 45.2923 8.05225 44.3717V11.4587C8.0572 10.5402 8.42431 9.66063 9.07384 9.0111C9.72338 8.36156 10.6029 7.99446 11.5215 7.9895Z" fill="white"/>
</g>
<defs>
<clipPath id="clip0_357_951">
<rect width="58" height="58" fill="white" transform="translate(0.5 0.4375)"/>
</clipPath>
</defs>
</svg>
