<svg width="59" height="59" viewBox="0 0 59 59" fill="none" xmlns="http://www.w3.org/2000/svg">
<path fill-rule="evenodd" clip-rule="evenodd" d="M0.5 29.4375V0.4375H58.5V58.4375H0.5V29.4375Z" fill="#007ACC"/>
<path fill-rule="evenodd" clip-rule="evenodd" d="M13.2158 29.5367V31.9014H20.7537V53.3635H26.1063V31.9014H33.6442V29.5792C33.6442 28.2764 33.6442 27.2144 33.5876 27.1861C33.5876 27.1436 28.9902 27.1295 23.4064 27.1295L13.2583 27.1719V29.5508L13.2158 29.5367ZM47.1011 27.1153C48.5785 27.4646 49.7113 28.1301 50.7261 29.1874C51.2642 29.768 52.0619 30.7828 52.1185 31.0424C52.1185 31.1273 49.6121 32.8266 48.0876 33.7706C48.0309 33.813 47.7996 33.5676 47.5636 33.19C46.8084 32.1185 46.0391 31.6513 44.8355 31.5663C43.0938 31.4483 41.9373 32.364 41.9373 33.8838C41.9373 34.3464 42.0223 34.6107 42.1969 34.9836C42.5887 35.7813 43.3156 36.258 45.5623 37.2445C49.7113 39.0287 51.5096 40.204 52.5952 41.8843C53.8272 43.7676 54.1009 46.7271 53.2749 48.9455C52.3451 51.3669 50.0841 53.0048 46.8509 53.5429C45.8361 53.7175 43.5138 53.6892 42.4282 53.5004C40.1107 53.0661 37.8875 51.905 36.5282 50.4135C35.9901 49.8329 34.9611 48.28 35.0225 48.1809L35.5747 47.8316L37.7507 46.5713L39.3885 45.6132L39.7661 46.1229C40.2428 46.8781 41.319 47.893 41.9421 48.2422C43.8254 49.2146 46.3506 49.0824 47.5967 47.9543C48.1348 47.4634 48.3661 46.9395 48.3661 46.2126C48.3661 45.5471 48.2622 45.2403 47.9318 44.7352C47.4692 44.098 46.5394 43.5741 43.9292 42.4177C40.9272 41.1433 39.6528 40.3314 38.4634 39.0806C37.7837 38.3254 37.1606 37.1501 36.868 36.1825C36.6509 35.3423 36.5801 33.2844 36.783 32.4537C37.4061 29.5556 39.5962 27.5259 42.7303 26.9454C43.7451 26.7424 46.1382 26.8274 47.1388 27.0917L47.1011 27.1153Z" fill="white"/>
</svg>
